{"title":"Chronicle 2012 TS XviD - MiSTERE","uid":7011623,"size":750209855,"categoryP":"video","categoryS":"movies","magnet":"?xt=urn:btih:e209ccfccb29db71fe18f7771e5e9a8505cd9ec7&amp;dn=Chronicle+2012+TS+XviD+-+MiSTERE&amp;tr=udp%3A%2F%2Ftracker.openbittorrent.com%3A80&amp;tr=udp%3A%2F%2Fopen.demonii.com%3A1337&amp;tr=udp%3A%2F%2Ftracker.coppersurfer.tk%3A6969&amp;tr=udp%3A%2F%2Fexodus.desync.com%3A6969","seeders":0,"leechers":0,"uploader":"MsB1982","files":4,"time":1328487333,"description":"\n\nChronicle 2012 TS XviD - MiSTERE\n &lt;a href=&quot;\nhttp://www.imdb.com/title/tt1706593/&quot; rel=&quot;nofollow&quot; target=&quot;_NEW&quot;&gt;\nhttp://www.imdb.com/title/tt1706593/&lt;/a&gt;\n\nVideo\nID: 0\nFormat: MPEG-4 Visual\nFormat profile: Advanced Simple@L5\nFormat settings, BVOP: 2\nFormat settings, QPel: No\nFormat settings, GMC: No warppoints\nFormat settings, Matrix: Default (H.263)\nMuxing mode: Packed bitstream\nCodec ID: XVID\nCodec ID/Hint: XviD\nDuration: 1h 15mn\nBit rate: 1 166 Kbps\nWidth: 680 pixels\nHeight: 288 pixels\nDisplay aspect ratio: 2.35:1\nFrame rate: 25.000 fps\nColor space: YUV\nChroma subsampling: 4:2:0\nBit depth: 8 bits\nScan type: Progressive\nCompression mode: Lossy\nBits/(Pixel*Frame): 0.238\nStream size: 629 MiB (89%)\nWriting library: XviD 64\n\nAudio\nID: 1\nFormat: MPEG Audio\nFormat version: Version 1\nFormat profile: Layer 3\nMode: Joint stereo\nMode extension: MS Stereo\nCodec ID: 55\nCodec ID/Hint: MP3\nDuration: 1h 15mn\nBit rate mode: Constant\nBit rate: 128 Kbps\nChannel(s): 2 channels\nSampling rate: 44.1 KHz\nCompression mode: Lossy\nStream size: 69.0 MiB (10%)\nAlignment: Split accross interleaves\nInterleave, duration: 40 ms (1.00 video frame)\n\nvideos nice audios nicer\nwant to complain go call your mother","torrent":{"xt":"urn:btih:e209ccfccb29db71fe18f7771e5e9a8505cd9ec7","amp;dn":"Chronicle+2012+TS+XviD+-+MiSTERE","amp;tr":["udp%3A%2F%2Ftracker.openbittorrent.com%3A80","udp%3A%2F%2Fopen.demonii.com%3A1337","udp%3A%2F%2Ftracker.coppersurfer.tk%3A6969","udp%3A%2F%2Fexodus.desync.com%3A6969"],"infoHash":"e209ccfccb29db71fe18f7771e5e9a8505cd9ec7","infoHashBuffer":{"type":"Buffer","data":[226,9,204,252,203,41,219,113,254,24,247,119,30,94,154,133,5,205,158,199]},"announce":[],"urlList":[]}}